# xmcd CD database file
#
# Track frame offsets:
#	225
#	10745
#	28300
#	40084
#	51670
#	63804
#	74596
#	85774
#	97407
#	109455
#	123024
#	137245
#	149836
#	166038
#	180704
#	191780
#	204494
#	216315
#	228845
#	239277
#
# Disc length: 3362 seconds
#
# Revision: 0
# Processed by: cddbd v1.5.2PL0 Copyright (c) Steve Scherf et al.
# Submitted via: CDex 1.51
#
DISCID=320d1f14
DTITLE=Jimmy Reed - Jimmy Reed - Down In Mississippi
DYEAR=1900
DGENRE=Blues
TTITLE0=01 - Jimmy Reed - Ain't That Lovin' You Baby
TTITLE1=02 - Jimmy Reed - Down In Mississippi
TTITLE2=03 - Jimmy Reed - Hush Hush
TTITLE3=04 - Jimmy Reed - I'm Nervous
TTITLE4=05 - Jimmy Reed - My Baby's So Sweet
TTITLE5=06 - Jimmy Reed - Oh John
TTITLE6=07 - Jimmy Reed - You're Something Else
TTITLE7=08 - Jimmy Reed - Close Together
TTITLE8=09 - Jimmy Reed - Honest I Do
TTITLE9=10 - Jimmy Reed - Take It Slow
TTITLE10=11 - Jimmy Reed - Baby What's Wrong
TTITLE11=12 - Jimmy Reed - Help Yourself
TTITLE12=13 - Jimmy Reed - Cold And Lonesome
TTITLE13=14 - Jimmy Reed - I Was So Young
TTITLE14=15 - Jimmy Reed - Good Lover
TTITLE15=16 - Jimmy Reed - Caress Me Baby
TTITLE16=17 - Jimmy Reed - Boogie In The Dark
TTITLE17=18 - Jimmy Reed - Shame Shame Shame
TTITLE18=19 - Jimmy Reed - Found Love
TTITLE19=20 - Jimmy Reed - Let's Get Together
EXTD=
EXTT0=
EXTT1=
EXTT2=
EXTT3=
EXTT4=
EXTT5=
EXTT6=
EXTT7=
EXTT8=
EXTT9=
EXTT10=
EXTT11=
EXTT12=
EXTT13=
EXTT14=
EXTT15=
EXTT16=
EXTT17=
EXTT18=
EXTT19=
PLAYORDER=
